<?xml version="1.0" standalone="no"?>
<svg viewBox="0 0 200 200" xmlns="http://www.w3.org/2000/svg">
  <path fill="#FF0066" d="M44.5,-76.1C57.5,-69.5,68,-57.4,75.9,-43.8C83.9,-30.2,89.5,-15.1,89.7,0.1C90,15.4,84.9,30.7,75.7,42.3C66.5,53.8,53.3,61.5,40,69.2C26.7,76.8,13.3,84.4,-0.3,84.9C-13.9,85.3,-27.7,78.7,-39.4,70.1C-51,61.5,-60.5,50.9,-66.9,38.9C-73.3,26.9,-76.6,13.5,-77.3,-0.4C-78,-14.3,-76.1,-28.5,-69.8,-40.7C-63.5,-52.8,-52.8,-62.9,-40.4,-70C-28.1,-77,-14,-81.1,0.8,-82.6C15.7,-84,31.4,-82.8,44.5,-76.1Z" transform="translate(100 100)" />
</svg>
